# xmcd
#
# Track frame offsets:
#	150
#	15780
#	31923
#	50605
#	63693
#	74996
#	87620
#
# Disc length: 1393 seconds
#
# Revision: 0
# Processed by: cddbd v1.5.2PL0 Copyright (c) Steve Scherf et al.
# Submitted via: AudioConverter v7.0 Copyright (c) D.R. Software
#
DISCID=61056f07
DTITLE=CAPT. HARRY - TEE IT HIGH AND LET IT FLY
DYEAR=2005
DGENRE=TROP ROCK
TTITLE0=THE SWEET SPOT
TTITLE1=CHASIN A LITTLE WHITE BALL
TTITLE2=IT'S LONELY OUT HERE
TTITLE3=READY FIRE AIM
TTITLE4=TEE IT HIGH and LET IT FLY
TTITLE5=HAVE A CIGAR
TTITLE6=I THINK I'VE GOT IT
EXTD=
EXTT0=THE SWEET SPOT
EXTT1=CHASIN A LITTLE WHITE BALL
EXTT2=IT'S LONELY OUT HERE
EXTT3=READY FIRE AIM
EXTT4=TEE IT HIGH and LET IT FLY
EXTT5=HAVE A CIGAR
EXTT6=I THINK I'VE GOT IT
PLAYORDER=
